<?xml version="1.0" standalone="no"?><!DOCTYPE svg PUBLIC "-//W3C//DTD SVG 1.1//EN" "http://www.w3.org/Graphics/SVG/1.1/DTD/svg11.dtd"><svg t="1584497057785" class="icon" viewBox="0 0 1024 1024" version="1.1" xmlns="http://www.w3.org/2000/svg" p-id="6657" xmlns:xlink="http://www.w3.org/1999/xlink" width="200" height="200"><defs><style type="text/css"></style></defs><path d="M997.882 187.118C980.074 169.308 957.392 160 931.75 160L336 160c-48.606 0-87.434 18.804-115.412 56.882L0 511.876l220.8 293.056 0.36 0.462 0.368 0.464c13.808 17.71 28.848 31.402 45.98 40.834C287.766 857.848 310.81 864 336 864l596 0c52.382 0 92-44.514 92-98L1024 254C1024 228.358 1015.692 204.926 997.882 187.118zM826.884 664.614c3.056 3.02 4.744 7.124 4.744 11.42 0 4.302-1.688 8.406-4.744 11.414l-43.646 43.81c-3.15 3.172-7.25 4.742-11.382 4.742-4.142 0-8.276-1.57-11.39-4.742l-152.46-152.922-152.46 152.922c-3.116 3.172-7.25 4.742-11.39 4.742-4.132 0-8.234-1.57-11.384-4.742l-43.648-43.81c-3.054-3.008-4.746-7.112-4.746-11.414 0-4.296 1.692-8.4 4.746-11.42L542.196 512l-153.476-152.594c-6.292-6.306-6.292-16.546 0-22.854l43.614-43.838c3.032-3.022 7.104-4.714 11.392-4.714 4.304 0 8.378 1.694 11.382 4.714l152.896 151.066 152.894-151.066c3.008-3.022 7.082-4.714 11.386-4.714 4.286 0 8.358 1.694 11.39 4.714l43.614 43.838c6.292 6.306 6.292 16.546 0 22.854L673.808 512 826.884 664.614z" p-id="6658"></path></svg>