<?xml version="1.0" standalone="no"?><!DOCTYPE svg PUBLIC "-//W3C//DTD SVG 1.1//EN" "http://www.w3.org/Graphics/SVG/1.1/DTD/svg11.dtd"><svg t="1584665432478" class="icon" viewBox="0 0 1024 1024" version="1.1" xmlns="http://www.w3.org/2000/svg" p-id="2370" xmlns:xlink="http://www.w3.org/1999/xlink" width="200" height="200"><defs><style type="text/css"></style></defs><path d="M461.269397 244.907641H725.333067V81.494511h-99.327876A82.687897 82.687897 0 0 0 544.170626 0.00128H461.22673a82.730563 82.730563 0 0 0-83.199896 81.493231H280.106957v163.41313h181.16244z m92.799884-126.975842a51.02927 51.02927 0 0 1-50.474604 51.199936A51.071936 51.071936 0 0 1 451.413409 119.68113c-0.298666-13.653316 4.991994-26.879966 14.634648-36.65062 9.642655-9.813321 22.869305-15.359981 36.693288-15.445314 28.202631 0 51.114603 22.485305 51.370602 50.346603z m264.917002 23.039971a150.741145 150.741145 0 0 1 143.786487 146.090485v596.308587A146.303817 146.303817 0 0 1 816.639619 1024H188.843071C131.968475 1024 42.667253 952.661423 42.667253 878.250849V286.379589c0-62.463922 64.767919-145.407818 132.906501-145.407819h29.653296V307.200896H799.146308V140.97177h19.797308z m-84.906561 757.41772a31.99996 31.99996 0 0 0 30.506629-48.895939 31.99996 31.99996 0 0 0-30.463962-14.933314H271.317634a31.99996 31.99996 0 0 0-30.463962 48.895939 31.99996 31.99996 0 0 0 30.463962 14.933314h462.804755z m0-206.506408a31.99996 31.99996 0 0 0 30.506629-48.895939 31.99996 31.99996 0 0 0-30.463962-14.933315H271.317634a31.99996 31.99996 0 0 0-30.463962 48.895939 31.99996 31.99996 0 0 0 30.463962 14.933315h462.804755zM271.360301 484.694007h462.804755a31.99996 31.99996 0 0 0 34.090624-31.74396 34.133291 34.133291 0 0 0-34.133291-32.085293H271.360301a31.99996 31.99996 0 0 0-30.463962 48.895939 31.99996 31.99996 0 0 0 30.463962 14.933314z" p-id="2371"></path></svg>