<?xml version="1.0" standalone="no"?><!DOCTYPE svg PUBLIC "-//W3C//DTD SVG 1.1//EN" "http://www.w3.org/Graphics/SVG/1.1/DTD/svg11.dtd"><svg t="1583887766692" class="icon" viewBox="0 0 1024 1024" version="1.1" xmlns="http://www.w3.org/2000/svg" p-id="2859" xmlns:xlink="http://www.w3.org/1999/xlink" width="200" height="200"><defs><style type="text/css"></style></defs><path d="M2 520l0 0 0 0q0 2-1 3t-1 3l0 0 0 0 0 8q0 12 4 22t12 18l0 0 362 428q8 10 21 16t27 6l0 0 0 0 12 0 0-2q10 0 17-4t13-10l0 0 534-490q10-10 16-22t6-26l0 0 0-406q0-14-5-25t-13-21q-10-8-21-13t-25-5l0 0-406 0q-12 0-24 5t-20 15l-490 468q-8 6-12 14t-6 18l0 0 0 0zM854 86q16 0 32 6t28 18 18 28 6 32q0 18-6 34t-18 28q-12 10-28 17t-32 7q-18 0-34-7t-28-17q-10-12-17-28t-7-34q0-16 7-32t17-28q12-12 28-18t34-6l0 0 0 0z" p-id="2860"></path></svg>