<?xml version="1.0" standalone="no"?><!DOCTYPE svg PUBLIC "-//W3C//DTD SVG 1.1//EN" "http://www.w3.org/Graphics/SVG/1.1/DTD/svg11.dtd"><svg t="1583887829227" class="icon" viewBox="0 0 1195 1024" version="1.1" xmlns="http://www.w3.org/2000/svg" p-id="4304" xmlns:xlink="http://www.w3.org/1999/xlink" width="233.3984375" height="200"><defs><style type="text/css"></style></defs><path d="M358.407484 1024H0V250.005087a102.564654 102.564654 0 0 1 102.444906-102.444906H255.962579a102.564654 102.564654 0 0 1 102.444905 102.444906z m-280.57091-77.836574h202.734337V250.005087a24.638269 24.638269 0 0 0-24.608332-24.608332H102.444906A24.638269 24.638269 0 0 0 77.836574 250.005087zM777.048502 1024H418.61108V375.711153a97.116094 97.116094 0 0 1 96.996346-96.996345h164.414793a97.146031 97.146031 0 0 1 97.026283 96.996345z m-280.600848-77.836574h202.764274V375.711153a19.189709 19.189709 0 0 0-19.189709-19.159772h-164.414793a19.189709 19.189709 0 0 0-19.159772 19.159772zM1195.659582 1024H837.222161V108.073089A108.192837 108.192837 0 0 1 945.325186 0h142.261307a108.192837 108.192837 0 0 1 108.073089 108.073089z m-280.600848-77.836574h202.764274V108.073089a30.266452 30.266452 0 0 0-30.236515-30.236515h-142.261307a30.296389 30.296389 0 0 0-30.266452 30.236515z" p-id="4305"></path></svg>