<?xml version="1.0" standalone="no"?><!DOCTYPE svg PUBLIC "-//W3C//DTD SVG 1.1//EN" "http://www.w3.org/Graphics/SVG/1.1/DTD/svg11.dtd"><svg t="1584683978443" class="icon" viewBox="0 0 1024 1024" version="1.1" xmlns="http://www.w3.org/2000/svg" p-id="2418" xmlns:xlink="http://www.w3.org/1999/xlink" width="200" height="200"><defs><style type="text/css"></style></defs><path d="M255.776 411.52c-2.464 14.048-3.776 28.48-3.776 43.2 0 139.52 116.416 252.64 260 252.64s260-113.088 260-252.608c0-14.72-1.28-29.184-3.776-43.2 61.12-15.84 115.04-37.28 159.776-63.008V832a192 192 0 0 1-192 192H288a192 192 0 0 1-192-192V348.544c44.736 25.728 98.656 47.168 159.776 62.976z m499.072-47.168C717.44 269.44 622.816 202.112 512 202.112s-205.44 67.36-242.88 162.24C202.528 348.256 144 325.632 96 298.016V192a192 192 0 0 1 192-192h448a192 192 0 0 1 192 192v106.016c-48 27.584-106.496 50.24-173.12 66.336zM512 656.832c-114.88 0-208-90.464-208-202.08 0-111.648 93.12-202.112 208-202.112s208 90.464 208 202.112c0 111.616-93.12 202.08-208 202.08z m113.76-297.696c7.904-20.48 1.376-30.72-19.616-30.72H569.92l-54.112 87.872-6.08 15.232h-0.736l-2.528-15.936c-7.68-21.28-14.4-41.6-20.256-60.864-5.312-17.536-17.088-26.304-35.264-26.304H400l44.448 104.896H407.84c-5.344 29.504 0.864 44.288 18.656 44.288h36.928l3.968 9.568-1.44 11.328-66.784 0.032c-10.24 30.912-1.664 46.4 25.696 46.4h34.272a414.08 414.08 0 0 1-1.856 15.328c-2.912 20.8 21.792 20.8 33.088 20.8h31.136l5.024-36.16h62.336c6.464-30.912 0.128-46.368-18.976-46.368l-36.928-0.032 1.792-11.68 6.816-9.216h56.96c5.984-29.376 0.512-44.256-16.384-44.64a206.752 206.752 0 0 0-9.024 0l52.64-73.824z" p-id="2419"></path></svg>