<?xml version="1.0" standalone="no"?><!DOCTYPE svg PUBLIC "-//W3C//DTD SVG 1.1//EN" "http://www.w3.org/Graphics/SVG/1.1/DTD/svg11.dtd"><svg t="1584506566338" class="icon" viewBox="0 0 1024 1024" version="1.1" xmlns="http://www.w3.org/2000/svg" p-id="1885" xmlns:xlink="http://www.w3.org/1999/xlink" width="200" height="200"><defs><style type="text/css"></style></defs><path d="M1001.969778 278.912l-3.271111 3.214222c-39.153778 48.355556-81.578667 96.597333-123.989334 144.881778C773.560889 533.333333 737.678222 546.133333 718.094222 546.133333h-6.528a167.096889 167.096889 0 0 1-75.050666-38.641777l-35.896889 45.084444 323.043555 321.976889a81.834667 81.834667 0 0 1 19.584 61.155555 68.394667 68.394667 0 0 1-26.097778 54.727112A89.301333 89.301333 0 0 1 861.667556 1009.777778a76.913778 76.913778 0 0 1-55.466667-22.542222C796.444444 974.350222 616.945778 771.512889 512.526222 652.401778L199.281778 987.221333A79.175111 79.175111 0 0 1 140.558222 1009.777778a82.915556 82.915556 0 0 1-61.994666-19.328 66.844444 66.844444 0 0 1-26.097778-51.498667 91.264 91.264 0 0 1 19.569778-70.826667c19.569778-19.342222 274.090667-260.835556 332.814222-315.548444l-22.840889-25.742222c-16.312889 3.214222-130.517333-6.442667-163.143111-35.427556C196.024889 468.878222 42.666667 246.727111 42.666667 146.915556c0-25.756444 9.784889-67.612444 52.209777-67.612445 26.097778 0 55.466667 19.313778 94.634667 57.955556 22.840889 22.528 267.562667 270.449778 323.029333 325.191111l32.625778-35.427556a149.006222 149.006222 0 0 1-42.424889-57.955555 98.730667 98.730667 0 0 1 13.056-74.055111l3.256889-9.656889a1544.775111 1544.775111 0 0 1 228.408889-231.822223 55.011556 55.011556 0 0 1 42.424889-9.656888A39.637333 39.637333 0 0 1 819.2 69.688889a40.590222 40.590222 0 0 1 0 38.641778c-9.784889 12.871111-166.4 177.066667-185.984 196.394666-6.528 6.428444-16.312889 25.756444-9.784889 32.184889h3.256889a65.948444 65.948444 0 0 0 26.097778-12.871111c9.784889-9.656889 169.671111-170.666667 182.727111-183.466667a41.6 41.6 0 0 1 29.368889-12.871111 42.069333 42.069333 0 0 1 39.153778 28.970667 33.379556 33.379556 0 0 1-3.256889 38.641778c-13.013333 15.985778-172.885333 193.066667-182.684445 202.723555a14.904889 14.904889 0 0 0-3.256889 22.528l3.256889 3.256889a52.792889 52.792889 0 0 0 22.840889-12.871111c6.528-9.656889 169.671111-170.666667 185.984-186.737778a37.333333 37.333333 0 0 1 26.097778-9.656889 58.183111 58.183111 0 0 1 52.209778 32.199112c6.528 12.871111 6.528 25.756444-3.256889 32.184888z" p-id="1886"></path></svg>